<svg width="45" height="48" fill="none" xmlns="http://www.w3.org/2000/svg"><path fill-rule="evenodd" clip-rule="evenodd" d="M33.047 0a5.922 5.922 0 00-5.927 5.925v15.063c0 6.722-5.442 12.15-12.155 12.15-6.721 0-12.152-5.438-12.152-12.149v-.008A1.406 1.406 0 000 20.987C0 32.912 8.917 40.47 18.733 40.47c11.194 0 20.24-9.058 20.24-20.235V5.925A5.923 5.923 0 0033.047 0zm8.74 6.025h1.806a1.406 1.406 0 110 2.813h-1.806V6.025zm-26.822 24.3c-5.15 0-9.339-4.188-9.339-9.344v-.014a4.189 4.189 0 00-.242-1.386h15.61a6.09 6.09 0 003.313-.977v2.384c0 5.148-4.19 9.337-9.342 9.337zm6.582 14.863h4.72a1.406 1.406 0 110 2.812h-7.534a1.406 1.406 0 110-2.813v-1.906c.948 0 1.887-.057 2.814-.169v2.075z" fill="#fff"/></svg>